<svg width="20" height="20" viewBox="0 0 20 20" fill="none" xmlns="http://www.w3.org/2000/svg">
<path d="M7.58955 2.22845C8.32012 1.86823 9.13738 1.66666 10 1.66666C13.1062 1.66666 15.6243 4.28019 15.6243 7.50413V8.0913C15.6243 8.79596 15.8252 9.48485 16.2018 10.0712L17.1247 11.5079C17.9676 12.8203 17.3241 14.6041 15.858 15.0191C12.0227 16.1047 7.97728 16.1047 4.14197 15.0191C2.67587 14.6041 2.03235 12.8203 2.8753 11.5079L3.79817 10.0712C4.17476 9.48485 4.37573 8.79596 4.37573 8.0913V7.50413C4.37573 6.60881 4.56993 5.76057 4.91699 5.00231" stroke="#D9D9D9" stroke-linecap="round"/>
<path d="M6.25 15.8333C6.79586 17.2898 8.26871 18.3333 10 18.3333C10.2037 18.3333 10.4039 18.3189 10.5994 18.291M13.75 15.8333C13.5275 16.4271 13.1508 16.9523 12.6654 17.3661" stroke="#D9D9D9" stroke-linecap="round"/>
</svg>
